<svg xmlns="http://www.w3.org/2000/svg" viewBox="0 0 1024 858" fill="none">
    <path d="M790.655 242.996C821.915 290.007 840.141 346.485 840.141 407.205V411.845V501.043L841.81 597.824C819.981 597.824 802.311 580.112 802.311 558.29V542.115V538.801V511.172C802.311 503.323 795.953 496.96 788.112 496.96H784.323H770.283C747.818 496.96 727.022 489.748 710.121 477.497V487.202V540.365C688.292 540.365 670.622 522.653 670.622 500.831V484.657V481.342L669.218 407.232L669.033 407.391L669.218 407.232C669.218 397.58 668.132 388.194 666.065 379.152C653.323 323.231 603.307 281.496 543.596 281.496C474.214 281.496 417.973 337.788 417.973 407.232C417.973 468.456 461.684 519.471 519.594 530.661C519.594 530.661 538.456 534.691 556.603 534.691L634.276 689.912C617.268 695.401 599.572 699.351 581.372 701.658C569.001 703.249 556.391 704.045 543.596 704.045C530.8 704.045 518.19 703.223 505.819 701.658C464.969 696.461 426.689 682.938 392.753 662.84C305.517 611.161 247.024 516.051 247.024 407.232C247.024 243.261 379.799 110.366 543.596 110.366C646.727 110.366 737.539 163.052 790.655 242.996C821.915 290.007 840.141 346.485 840.141 407.205Z" fill="white"/>
    <path d="M790.655 242.996C821.915 290.007 840.141 346.485 840.141 407.205V411.845V501.043L841.81 597.824C819.981 597.824 802.311 580.112 802.311 558.29V542.115V538.801V511.172C802.311 503.323 795.953 496.96 788.112 496.96H784.323H770.283C747.818 496.96 727.022 489.748 710.121 477.497V487.202V540.365C688.292 540.365 670.622 522.653 670.622 500.831V484.657V481.342L669.218 407.232L669.033 407.391L669.218 407.232C669.218 397.58 668.132 388.194 666.065 379.152C653.323 323.231 603.307 281.496 543.596 281.496C474.214 281.496 417.973 337.788 417.973 407.232C417.973 468.456 461.684 519.471 519.594 530.661C519.594 530.661 538.456 534.691 556.603 534.691L634.276 689.912C617.268 695.401 599.572 699.351 581.372 701.658C569.001 703.249 556.391 704.045 543.596 704.045C530.8 704.045 518.19 703.223 505.819 701.658C464.969 696.461 426.689 682.938 392.753 662.84C305.517 611.161 247.024 516.051 247.024 407.232C247.024 243.261 379.799 110.366 543.596 110.366C646.727 110.366 737.539 163.052 790.655 242.996ZM790.655 242.996C821.915 290.007 840.141 346.485 840.141 407.205" stroke="#323444" stroke-width="1.25" stroke-miterlimit="10" stroke-linecap="round" stroke-linejoin="bevel"/>
    <path d="M321.304 527.456C295.501 509.85 288.825 474.637 306.416 448.785L312.588 439.743L415.11 509.69C394.129 540.501 352.114 548.456 321.304 527.456Z" fill="white"/>
    <path fill-rule="evenodd" clip-rule="evenodd" d="M309.046 437.312L315.003 436.185L417.525 506.133L418.654 512.107C396.336 544.88 351.653 553.336 318.89 531.004L318.888 531.002C291.128 512.06 283.944 474.174 302.87 446.359L302.874 446.353L302.874 446.353L309.046 437.312ZM313.712 445.705L309.961 451.2C309.96 451.2 309.96 451.201 309.959 451.202C293.707 475.091 299.874 507.627 323.717 523.897M313.712 445.705L409.027 510.735C388.682 536.682 351.38 542.751 323.719 523.898" fill="#323444"/>
    <path d="M419.773 594.904C393.971 577.297 387.295 542.085 404.885 516.233L411.058 507.191L513.58 577.138C492.572 607.949 450.583 615.904 419.773 594.904Z" fill="white"/>
    <path fill-rule="evenodd" clip-rule="evenodd" d="M407.516 504.767L413.473 503.641L515.994 573.588L517.122 579.564C494.779 612.334 450.124 620.792 417.359 598.459L417.357 598.457C389.597 579.515 382.414 541.629 401.339 513.814L401.343 513.808L401.343 513.808L407.516 504.767ZM412.181 513.16L408.43 518.655C408.429 518.656 408.429 518.657 408.428 518.658C392.176 542.547 398.344 575.082 422.187 591.352M412.181 513.16L507.494 578.189C487.127 604.138 449.848 610.205 422.188 591.354" fill="#323444"/>
    <path d="M397.811 523.423L396.142 525.226L394.102 526.605L391.824 527.506L389.387 527.957L386.923 527.93L384.512 527.427L382.208 526.499L380.115 525.199L378.287 523.555L376.724 521.646L375.585 519.472L374.79 517.112L374.525 514.673L374.711 512.207L375.452 509.847L376.697 507.726L378.366 505.923L380.406 504.517L382.685 503.642L385.122 503.192L387.585 503.218L389.996 503.748L392.301 504.65L394.394 505.949L396.222 507.593L397.758 509.529L398.977 511.677L399.692 514.036L400.01 516.476L399.824 518.942L399.056 521.302L397.811 523.423Z" fill="#323444"/>
    <path fill-rule="evenodd" clip-rule="evenodd" d="M384.343 498.966C384.615 498.915 384.891 498.891 385.168 498.894L387.632 498.921C387.926 498.924 388.219 498.957 388.506 499.021L390.917 499.551C391.135 499.599 391.349 499.664 391.557 499.745L393.862 500.647C394.105 500.742 394.339 500.859 394.561 500.997L396.654 502.296C396.869 502.43 397.072 502.582 397.26 502.752L399.088 504.395C399.266 504.556 399.431 504.731 399.58 504.919L401.117 506.854C401.255 507.028 401.379 507.212 401.488 507.405L402.707 509.553C402.864 509.83 402.99 510.124 403.082 510.428L403.798 512.788C403.866 513.014 403.916 513.246 403.947 513.48L404.265 515.92C404.302 516.211 404.311 516.506 404.288 516.799L404.103 519.265C404.077 519.608 404.01 519.947 403.904 520.274L403.136 522.634C403.04 522.929 402.912 523.213 402.755 523.48L401.51 525.601C401.353 525.868 401.168 526.118 400.958 526.345L399.289 528.148C399.065 528.39 398.815 528.604 398.542 528.789L396.502 530.167C396.244 530.342 395.968 530.487 395.679 530.602L393.401 531.504C393.143 531.606 392.876 531.682 392.603 531.733L390.166 532.183C389.894 532.234 389.618 532.258 389.341 532.255L386.877 532.228C386.598 532.225 386.32 532.195 386.047 532.138L383.636 531.634C383.389 531.582 383.147 531.509 382.912 531.414L380.608 530.486C380.378 530.394 380.158 530.282 379.948 530.152L377.855 528.853C377.64 528.719 377.437 528.567 377.249 528.397L375.421 526.754C375.259 526.608 375.108 526.45 374.97 526.281L373.407 524.372C373.222 524.146 373.06 523.902 372.925 523.644L371.786 521.469C371.681 521.269 371.592 521.061 371.52 520.846L370.725 518.486C370.626 518.191 370.559 517.886 370.525 517.577L370.26 515.138C370.232 514.876 370.227 514.613 370.247 514.35L370.432 511.884C370.457 511.556 370.52 511.231 370.618 510.916L371.36 508.557C371.457 508.247 371.59 507.949 371.754 507.669L372.999 505.548C373.156 505.281 373.341 505.031 373.551 504.804L375.22 503.001C375.435 502.769 375.675 502.561 375.935 502.382L377.975 500.977C378.254 500.784 378.555 500.626 378.87 500.505L381.149 499.63C381.394 499.536 381.647 499.464 381.906 499.416L384.343 498.966ZM385.492 507.494L383.852 507.797L382.418 508.348L381.19 509.194L380.16 510.306L379.398 511.604L378.952 513.025L378.833 514.601L379.005 516.182L379.542 517.776L380.32 519.261L381.397 520.577L382.698 521.747L384.153 522.65L385.761 523.297L387.389 523.638L389.017 523.655L390.635 523.356L392.091 522.78L393.332 521.941L394.349 520.843L395.122 519.526L395.585 518.102L395.699 516.594L395.484 514.945L395.01 513.384L394.193 511.943L393.088 510.55L391.811 509.402L390.375 508.51L388.748 507.874L387.097 507.511L385.492 507.494Z" fill="#323444"/>
    <path fill-rule="evenodd" clip-rule="evenodd" d="M327.3 416.178C329.033 414.56 331.748 414.656 333.364 416.393L408.679 497.371C410.294 499.108 410.198 501.827 408.464 503.445C406.73 505.063 404.015 504.967 402.4 503.23L327.085 422.252C325.47 420.515 325.566 417.796 327.3 416.178Z" fill="#323444"/>
    <path fill-rule="evenodd" clip-rule="evenodd" d="M399.101 464.434C400.835 462.816 403.55 462.912 405.165 464.649L480.507 545.653C482.122 547.39 482.026 550.11 480.292 551.728C478.559 553.346 475.844 553.249 474.229 551.513L398.887 470.508C397.272 468.772 397.368 466.052 399.101 464.434Z" fill="#323444"/>
    <path d="M486.686 585.414L485.017 587.217L482.977 588.596L480.672 589.498L478.235 589.922L475.771 589.895L473.36 589.391L471.082 588.463L468.989 587.164L467.135 585.52L465.598 583.611L464.406 581.437L463.638 579.103L463.347 576.664L463.559 574.198L464.3 571.838L465.545 569.717L467.214 567.914L469.254 566.509L471.533 565.581L473.97 565.183L476.433 565.209L478.844 565.713L481.122 566.641L483.242 567.941L485.096 569.558L486.633 571.494L487.825 573.641L488.566 576.001L488.858 578.467L488.619 580.907L487.931 583.266L486.686 585.414Z" fill="#323444"/>
    <path fill-rule="evenodd" clip-rule="evenodd" d="M473.28 560.941C473.523 560.902 473.77 560.883 474.016 560.886L476.48 560.912C476.759 560.915 477.037 560.945 477.31 561.002L479.721 561.506C479.974 561.559 480.221 561.635 480.461 561.732L482.739 562.66C482.955 562.748 483.163 562.854 483.362 562.976L485.482 564.275C485.686 564.4 485.879 564.542 486.059 564.7L487.914 566.317C488.111 566.489 488.292 566.678 488.455 566.883L489.991 568.819C490.137 569.003 490.268 569.2 490.383 569.405L491.575 571.553C491.716 571.807 491.83 572.074 491.917 572.351L492.659 574.711C492.74 574.967 492.796 575.23 492.827 575.496L493.119 577.962C493.155 578.269 493.158 578.579 493.128 578.886L492.89 581.326C492.864 581.592 492.813 581.856 492.738 582.113L492.049 584.473C491.952 584.805 491.815 585.125 491.641 585.425L490.396 587.573C490.237 587.847 490.048 588.104 489.832 588.336L488.163 590.14C487.94 590.381 487.689 590.596 487.417 590.78L485.377 592.159C485.114 592.336 484.833 592.484 484.538 592.6L482.233 593.501C481.966 593.606 481.689 593.683 481.407 593.732L478.97 594.156C478.712 594.201 478.451 594.222 478.189 594.219L475.725 594.193C475.446 594.19 475.168 594.16 474.895 594.103L472.484 593.599C472.231 593.546 471.984 593.47 471.744 593.373L469.466 592.445C469.243 592.354 469.027 592.244 468.822 592.117L466.729 590.817C466.523 590.689 466.328 590.544 466.146 590.383L464.292 588.739C464.112 588.579 463.946 588.405 463.795 588.218L462.258 586.309C462.1 586.112 461.959 585.902 461.838 585.68L460.646 583.506C460.519 583.275 460.414 583.033 460.332 582.783L459.564 580.45C459.474 580.178 459.412 579.898 459.378 579.614L459.087 577.175C459.052 576.883 459.047 576.588 459.072 576.296L459.284 573.83C459.311 573.517 459.372 573.207 459.466 572.908L460.208 570.548C460.306 570.238 460.438 569.94 460.602 569.66L461.847 567.539C462.004 567.272 462.189 567.022 462.399 566.795L464.068 564.992C464.283 564.76 464.523 564.552 464.783 564.373L466.823 562.968C467.078 562.792 467.351 562.645 467.638 562.528L469.916 561.6C470.215 561.478 470.525 561.391 470.843 561.339L473.28 560.941ZM474.294 569.485L472.7 569.745L471.302 570.314L470.038 571.185L469.008 572.297L468.246 573.595L467.793 575.038L467.659 576.593L467.847 578.166L468.357 579.715L469.177 581.21L470.249 582.542L471.56 583.704L473.034 584.619L474.617 585.264L476.237 585.603L477.888 585.62L479.513 585.337L480.972 584.767L482.207 583.932L483.215 582.843L483.959 581.56L484.389 580.087L484.543 578.511L484.353 576.907L483.863 575.349L483.055 573.892L481.983 572.541L480.696 571.418L479.182 570.49L477.588 569.841L475.968 569.503L474.294 569.485Z" fill="#323444"/>
    <path d="M501.116 665.439C503.677 665.439 505.752 663.361 505.752 660.799C505.752 658.236 503.677 656.159 501.116 656.159C498.556 656.159 496.48 658.236 496.48 660.799C496.48 663.361 498.556 665.439 501.116 665.439Z" fill="#323444"/>
    <path fill-rule="evenodd" clip-rule="evenodd" d="M501.116 660.456C500.922 660.456 500.771 660.612 500.771 660.798C500.771 660.984 500.922 661.141 501.116 661.141C501.31 661.141 501.462 660.984 501.462 660.798C501.462 660.612 501.31 660.456 501.116 660.456ZM492.19 660.798C492.19 655.859 496.19 651.86 501.116 651.86C506.043 651.86 510.043 655.859 510.043 660.798C510.043 665.738 506.043 669.736 501.116 669.736C496.19 669.736 492.19 665.738 492.19 660.798Z" fill="#323444"/>
    <path d="M473.598 669.544C476.158 669.544 478.234 667.466 478.234 664.904C478.234 662.341 476.158 660.264 473.598 660.264C471.038 660.264 468.962 662.341 468.962 664.904C468.962 667.466 471.038 669.544 473.598 669.544Z" fill="#323444"/>
    <path fill-rule="evenodd" clip-rule="evenodd" d="M473.598 664.561C473.404 664.561 473.253 664.717 473.253 664.903C473.253 665.089 473.404 665.246 473.598 665.246C473.792 665.246 473.944 665.089 473.944 664.903C473.944 664.717 473.792 664.561 473.598 664.561ZM464.672 664.903C464.672 659.964 468.671 655.965 473.598 655.965C478.525 655.965 482.525 659.964 482.525 664.903C482.525 669.843 478.525 673.841 473.598 673.841C468.671 673.841 464.672 669.843 464.672 664.903Z" fill="#323444"/>
    <path d="M486.498 644.303C489.058 644.303 491.134 642.225 491.134 639.663C491.134 637.1 489.058 635.023 486.498 635.023C483.937 635.023 481.862 637.1 481.862 639.663C481.862 642.225 483.937 644.303 486.498 644.303Z" fill="#323444"/>
    <path fill-rule="evenodd" clip-rule="evenodd" d="M486.497 639.321C486.303 639.321 486.151 639.477 486.151 639.663C486.151 639.849 486.303 640.005 486.497 640.005C486.691 640.005 486.842 639.849 486.842 639.663C486.842 639.477 486.691 639.321 486.497 639.321ZM477.57 639.663C477.57 634.724 481.57 630.725 486.497 630.725C491.423 630.725 495.423 634.724 495.423 639.663C495.423 644.602 491.423 648.601 486.497 648.601C481.57 648.601 477.57 644.602 477.57 639.663Z" fill="#323444"/>
    <path d="M458.948 648.384C461.508 648.384 463.584 646.306 463.584 643.744C463.584 641.181 461.508 639.104 458.948 639.104C456.387 639.104 454.312 641.181 454.312 643.744C454.312 646.306 456.387 648.384 458.948 648.384Z" fill="#323444"/>
    <path fill-rule="evenodd" clip-rule="evenodd" d="M458.948 643.402C458.754 643.402 458.602 643.558 458.602 643.744C458.602 643.93 458.754 644.086 458.948 644.086C459.142 644.086 459.294 643.93 459.294 643.744C459.294 643.558 459.142 643.402 458.948 643.402ZM450.021 643.744C450.021 638.805 454.021 634.806 458.948 634.806C463.875 634.806 467.875 638.805 467.875 643.744C467.875 648.683 463.875 652.682 458.948 652.682C454.021 652.682 450.021 648.683 450.021 643.744Z" fill="#323444"/>
    <path d="M536.493 534.635H601.344C648.075 534.635 685.984 572.552 685.984 619.352V620.916C685.984 667.689 648.102 705.633 601.344 705.633H536.493V534.635Z" fill="#323444"/>
    <path fill-rule="evenodd" clip-rule="evenodd" d="M532.203 534.635C532.203 532.262 534.124 530.338 536.493 530.338H601.344C650.441 530.338 690.275 570.175 690.275 619.352V620.916C690.275 670.065 650.469 709.931 601.344 709.931H536.493C534.124 709.931 532.203 708.007 532.203 705.633V534.635ZM540.784 538.933V701.335H601.344C645.735 701.335 681.694 665.314 681.694 620.916V619.352C681.694 574.93 645.71 538.933 601.344 538.933H540.784Z" fill="#323444"/>
    <path d="M336.648 254.665C330.846 260.392 325.283 266.702 320.144 273.543C315.057 280.437 310.289 287.756 305.785 295.392C301.335 303.082 297.334 311.116 293.546 319.335C289.837 327.608 286.367 336.067 283.135 344.684C276.804 361.946 271.452 379.817 267.081 398.007C262.684 416.143 259.24 434.836 257.041 453.291L257.014 453.503C256.617 456.844 253.597 459.23 250.259 458.833C247.266 458.488 245.067 456.022 244.908 453.105C243.901 433.511 244.352 414.313 245.438 394.825C246.577 375.389 248.829 355.9 252.273 336.411C254.047 326.68 256.14 316.923 258.577 307.191C261.068 297.46 264.061 287.809 267.32 278.104C270.711 268.426 274.605 258.801 279.108 249.282C283.771 239.816 288.91 230.403 294.871 221.176L295.083 220.831C303.163 208.316 319.852 204.71 332.356 212.797C344.86 220.884 348.463 237.589 340.383 250.104C339.323 251.748 337.999 253.339 336.648 254.665Z" fill="#323444"/>
    <path d="M587.394 338.372C570.863 331.319 553.723 326.997 536.769 325.963C535.709 325.909 534.623 325.777 533.563 325.75L530.411 325.803C528.318 325.883 526.172 325.803 524.079 325.989L517.827 326.652C515.708 326.838 513.748 327.421 511.655 327.739C503.469 329.463 495.442 332.167 487.866 336.197C472.739 344.258 459.334 357.038 448.711 372.47C443.36 380.186 438.698 388.512 434.697 397.236C432.763 401.611 430.856 406.065 429.24 410.6C427.624 415.081 426.061 419.853 424.949 424.228L424.922 424.573C424.101 427.834 420.789 429.797 417.531 428.948C414.59 428.206 412.709 425.422 413.001 422.505C414.008 411.713 416.1 401.743 418.829 391.535C421.664 381.433 425.213 371.436 429.743 361.705C438.751 342.296 451.996 323.762 470.275 309.55C488.528 295.443 511.496 286.614 534.464 283.83C557.538 280.78 580.506 282.796 602.362 286.932L602.997 287.038C617.621 289.796 627.237 303.928 624.482 318.565C621.727 333.201 607.607 342.826 592.984 340.069C591.05 339.697 589.116 339.088 587.394 338.372Z" fill="#323444"/>
    <path fill-rule="evenodd" clip-rule="evenodd" d="M258.287 361.282C258.667 358.939 260.871 357.349 263.21 357.729L418.662 383.025C421.001 383.405 422.589 385.613 422.209 387.956C421.829 390.299 419.625 391.89 417.286 391.509L261.834 366.213C259.495 365.833 257.907 363.625 258.287 361.282Z" fill="#323444"/>
    <path d="M420.393 433.986C420.393 390.077 456.077 354.361 499.947 354.361H503.232C511.55 354.361 518.305 347.599 518.305 339.273C518.305 330.948 511.55 324.186 503.232 324.186C503.232 324.186 442.937 313.898 427.546 377.747C417.559 419.191 420.393 433.986 420.393 433.986Z" fill="white"/>
    <path fill-rule="evenodd" clip-rule="evenodd" d="M503.583 319.891C503.458 319.873 503.304 319.851 503.121 319.826C502.622 319.759 501.909 319.673 501.009 319.589C499.21 319.421 496.652 319.261 493.546 319.278C487.351 319.313 478.881 320.057 469.862 322.927C451.585 328.743 431.459 343.204 423.375 376.738L423.375 376.738C418.334 397.659 416.5 411.972 415.942 421.146C415.663 425.735 415.703 429.045 415.822 431.258C415.882 432.365 415.961 433.198 416.031 433.78C416.066 434.071 416.098 434.299 416.124 434.467C416.137 434.552 416.149 434.621 416.158 434.675L416.171 434.746L416.176 434.774L416.178 434.785L416.179 434.791C416.179 434.793 416.18 434.796 420.393 433.986L416.18 434.796L424.684 433.986C424.684 392.453 458.444 358.658 499.947 358.658H503.232C513.917 358.658 522.596 349.976 522.596 339.273C522.596 328.688 514.106 320.079 503.583 319.891ZM429.486 388.536C444.431 365.401 470.431 350.062 499.947 350.062H503.232C509.184 350.062 514.015 345.222 514.015 339.273C514.015 333.324 509.184 328.484 503.232 328.484L502.515 328.423C502.515 328.423 502.515 328.423 502.515 328.423L502.512 328.422L502.504 328.421L502.411 328.407C502.322 328.393 502.177 328.372 501.982 328.346C501.59 328.293 500.992 328.22 500.213 328.148C498.655 328.002 496.382 327.858 493.595 327.874C488.004 327.905 480.438 328.58 472.46 331.119C456.741 336.121 439.024 348.441 431.717 378.755C430.886 382.203 430.146 385.46 429.486 388.536Z" fill="#323444"/>
    <path d="M367.904 356.982C385.461 356.982 399.694 342.737 399.694 325.164C399.694 307.591 385.461 293.345 367.904 293.345C350.347 293.345 336.114 307.591 336.114 325.164C336.114 342.737 350.347 356.982 367.904 356.982Z" fill="white"/>
    <path fill-rule="evenodd" clip-rule="evenodd" d="M367.904 297.643C352.714 297.643 340.405 309.968 340.405 325.164C340.405 340.36 352.714 352.685 367.904 352.685C383.095 352.685 395.403 340.36 395.403 325.164C395.403 309.968 383.095 297.643 367.904 297.643ZM331.824 325.164C331.824 305.214 347.981 289.048 367.904 289.048C387.828 289.048 403.984 305.214 403.984 325.164C403.984 345.114 387.828 361.28 367.904 361.28C347.981 361.28 331.824 345.114 331.824 325.164Z" fill="#323444"/>
    <path fill-rule="evenodd" clip-rule="evenodd" d="M360.293 351.629C362.571 352.284 363.887 354.665 363.233 356.946L357.458 377.098C356.804 379.379 354.428 380.698 352.15 380.043C349.873 379.388 348.557 377.007 349.21 374.726L354.985 354.574C355.639 352.293 358.016 350.974 360.293 351.629Z" fill="#323444"/>
    <path d="M710.042 572.955C718.784 564.682 726.254 555.296 731.632 544.875C734.414 539.731 736.666 534.322 738.52 528.834C740.427 523.345 741.832 517.724 742.865 512.049C745.01 500.701 745.54 489.087 744.984 477.606C744.693 471.852 744.083 466.151 743.236 460.504C742.785 457.693 742.308 454.882 741.699 452.151C741.408 450.772 741.09 449.42 740.772 448.094C740.454 446.848 740.057 445.284 739.765 444.488C737.063 437.037 740.904 428.818 748.348 426.113C755.792 423.409 764.005 427.253 766.733 434.704C767.051 435.606 767.29 436.534 767.449 437.435L767.608 438.496C767.926 440.697 768.032 442.155 768.19 443.931C768.323 445.628 768.429 447.299 768.482 448.969C768.641 452.31 768.667 455.598 768.641 458.886C768.561 465.462 768.164 471.985 767.422 478.481C765.939 491.447 763.157 504.254 758.707 516.504C756.508 522.629 753.912 528.595 750.812 534.296C747.766 539.997 744.322 545.485 740.401 550.576C732.718 560.891 723.102 569.508 712.77 576.455C711.79 577.118 710.439 576.853 709.777 575.872C709.168 574.97 709.326 573.804 710.095 573.088L710.042 572.955Z" fill="#323444"/>
    <path d="M998.199 384.559C993.313 394.786 984.145 401.594 973.879 403.819C966.477 405.454 958.514 404.704 951.179 401.179C943.121 397.319 937.205 390.832 933.98 383.205C930.125 374.198 930.018 363.623 934.582 354.067C939.133 344.537 947.418 337.969 956.84 335.329C964.791 333.064 973.558 333.613 981.602 337.46C988.937 340.972 994.531 346.708 997.904 353.504C1002.62 362.926 1003.08 374.332 998.199 384.559Z" fill="#FFB319"/>
    <path fill-rule="evenodd" clip-rule="evenodd" d="M979.921 341C972.76 337.576 964.975 337.091 957.918 339.102L957.902 339.107L957.902 339.107C949.524 341.454 942.166 347.289 938.121 355.759L938.121 355.759C934.064 364.255 934.157 373.648 937.585 381.659L937.592 381.675C940.455 388.444 945.703 394.204 952.875 397.64L952.879 397.642C959.399 400.775 966.467 401.441 973.042 399.988L973.057 399.985C982.186 398.006 990.33 391.956 994.672 382.865C999.013 373.779 998.602 363.646 994.409 355.26L994.403 355.25C991.409 349.218 986.445 344.124 979.921 341ZM955.783 331.553C964.624 329.036 974.371 329.652 983.295 333.92L983.297 333.92C991.439 337.819 997.663 344.196 1001.41 351.752C1006.64 362.21 1007.17 374.887 1001.74 386.252C996.31 397.613 986.121 405.179 974.721 407.652C966.496 409.467 957.64 408.631 949.493 404.717C940.554 400.433 933.972 393.222 930.383 384.743C926.106 374.742 925.986 362.989 931.055 352.374M955.783 331.553C945.319 334.488 936.111 341.787 931.055 352.373Z" fill="#191919"/>
    <path d="M956.252 364.465C951.687 374.022 943.416 380.576 933.98 383.216C930.125 374.209 930.018 363.634 934.582 354.078C939.133 344.548 947.418 337.98 956.84 335.34C960.709 344.36 960.802 354.922 956.252 364.465Z" fill="#FFB319"/>
    <path fill-rule="evenodd" clip-rule="evenodd" d="M954.482 340.293C947.547 343.134 941.605 348.475 938.121 355.77L938.121 355.77C934.626 363.088 934.211 371.071 936.354 378.264C943.293 375.426 949.228 370.093 952.724 362.774M954.482 340.293C956.631 347.49 956.21 355.463 952.725 362.772ZM931.055 352.385C936.112 341.795 945.324 334.495 955.792 331.562L960.445 333.792C964.741 343.811 964.847 355.554 959.792 366.156L959.791 366.158C954.721 376.773 945.522 384.061 935.04 386.994L930.386 384.762C926.106 374.759 925.984 363.002 931.055 352.385" fill="#191919"/>
    <path d="M998.202 384.558C993.317 394.784 984.148 401.593 973.882 403.818C969.171 394.422 968.716 383.003 973.601 372.763C978.487 362.536 987.655 355.741 997.921 353.516C1002.62 362.925 1003.09 374.331 998.202 384.558Z" fill="#FFB319"/>
    <path fill-rule="evenodd" clip-rule="evenodd" d="M977.14 374.453C980.991 366.395 987.829 360.734 995.697 358.175ZM995.697 358.175C998.637 365.922 998.525 374.804 994.675 382.863C990.823 390.926 983.981 396.598 976.113 399.157C973.169 391.424 973.287 382.531 977.14 374.455M970.074 371.068C975.504 359.703 985.698 352.151 997.098 349.68L1001.43 351.76C1006.64 362.205 1007.17 374.884 1001.74 386.25C996.312 397.613 986.119 405.18 974.716 407.651L970.388 405.578C965.153 395.138 964.647 382.444 970.073 371.07L970.074 371.068Z" fill="#191919"/>
    <path fill-rule="evenodd" clip-rule="evenodd" d="M544.93 8.58147C539.499 8.57438 534.078 8.67187 528.671 8.87283C526.303 8.96084 524.312 7.11256 524.224 4.74458C524.136 2.37661 525.984 0.385648 528.352 0.297644C533.869 0.092608 539.4 -0.006859 544.941 0.0003671C547.31 0.00345708 549.229 1.92691 549.226 4.29651C549.223 6.66612 547.299 8.58456 544.93 8.58147ZM500.028 6.57784C500.298 8.93203 498.608 11.0592 496.254 11.329C485.46 12.5663 474.742 14.2168 464.123 16.2715C461.797 16.7217 459.546 15.2006 459.096 12.8742C458.645 10.5477 460.166 8.29683 462.493 7.84667C473.327 5.75019 484.263 4.06612 495.277 2.80375C497.631 2.53393 499.759 4.22364 500.028 6.57784ZM435.466 18.3982C436.094 20.6831 434.751 23.0444 432.466 23.6723C422.004 26.5472 411.665 29.8221 401.473 33.4877C399.243 34.2896 396.785 33.1321 395.983 30.9023C395.182 28.6725 396.339 26.2148 398.569 25.4129C408.969 21.6727 419.517 18.3312 430.192 15.3979C432.477 14.77 434.838 16.1133 435.466 18.3982ZM373.483 39.9882C374.454 42.1496 373.49 44.6892 371.328 45.6605C361.446 50.1018 351.733 54.9249 342.212 60.1206C340.132 61.2557 337.525 60.4898 336.39 58.4097C335.255 56.3297 336.021 53.7233 338.101 52.5882C347.816 47.2865 357.727 42.3651 367.811 37.8335C369.972 36.8621 372.512 37.8269 373.483 39.9882ZM315.555 70.8486C316.847 72.8347 316.285 75.4925 314.298 76.7849C305.231 82.6854 296.377 88.9455 287.758 95.556C285.878 96.9982 283.185 96.6431 281.743 94.7629C280.3 92.8827 280.656 90.1894 282.536 88.7472C291.33 82.0015 300.365 75.6135 309.618 69.5925C311.604 68.3001 314.262 68.8625 315.555 70.8486ZM263.076 110.266C264.659 112.029 264.514 114.741 262.751 116.325C258.725 119.941 254.763 123.64 250.867 127.422L250.859 127.431C245.826 132.291 240.922 137.27 236.15 142.362C234.53 144.092 231.815 144.18 230.085 142.56C228.356 140.94 228.268 138.225 229.888 136.495C234.756 131.299 239.76 126.22 244.894 121.261C248.869 117.403 252.91 113.629 257.017 109.941C258.78 108.357 261.492 108.503 263.076 110.266ZM208.261 168.325C210.144 169.764 210.504 172.457 209.065 174.339C200.574 185.447 192.648 196.971 185.317 208.866C184.074 210.884 181.431 211.511 179.413 210.268C177.396 209.025 176.769 206.382 178.012 204.364C185.493 192.224 193.582 180.464 202.247 169.128C203.686 167.245 206.379 166.886 208.261 168.325ZM163.165 239.867C165.297 240.902 166.186 243.468 165.152 245.6C162.105 251.88 159.213 258.242 156.48 264.681C153.75 271.11 151.186 277.599 148.789 284.142C147.974 286.367 145.51 287.51 143.285 286.695C141.06 285.88 139.917 283.415 140.732 281.19C143.178 274.513 145.795 267.89 148.581 261.328C151.37 254.757 154.322 248.264 157.432 241.854C158.466 239.722 161.033 238.833 163.165 239.867ZM133.297 318.88C135.593 319.468 136.978 321.805 136.39 324.1C132.93 337.621 130.152 351.305 128.069 365.102C127.715 367.445 125.529 369.058 123.186 368.704C120.843 368.35 119.23 366.164 119.584 363.821C121.711 349.739 124.545 335.772 128.077 321.973C128.665 319.677 131.002 318.292 133.297 318.88ZM119.839 402.236C122.205 402.353 124.03 404.366 123.913 406.732C123.571 413.692 123.404 420.668 123.412 427.652C123.415 430.021 121.497 431.945 119.127 431.947C116.758 431.95 114.834 430.032 114.831 427.662C114.822 420.534 114.993 413.415 115.342 406.311C115.459 403.944 117.472 402.12 119.839 402.236Z" fill="#323444"/>
    <path fill-rule="evenodd" clip-rule="evenodd" d="M968.298 423.371C970.668 423.371 972.589 425.292 972.589 427.661C972.589 433.307 972.48 438.927 972.266 444.52C972.175 446.888 970.182 448.734 967.814 448.643C965.446 448.552 963.6 446.559 963.691 444.191C963.901 438.708 964.007 433.197 964.007 427.661C964.007 425.292 965.928 423.371 968.298 423.371ZM965.913 473.337C968.266 473.611 969.953 475.74 969.679 478.094C968.376 489.32 966.642 500.415 964.495 511.361C964.039 513.686 961.784 515.202 959.459 514.746C957.134 514.289 955.618 512.035 956.075 509.709C958.178 498.982 959.878 488.108 961.156 477.104C961.429 474.75 963.559 473.064 965.913 473.337ZM953.742 538.852C956.024 539.489 957.358 541.855 956.721 544.138C953.69 555 950.245 565.688 946.405 576.184C945.591 578.409 943.127 579.553 940.901 578.739C938.676 577.925 937.532 575.461 938.346 573.236C942.109 562.95 945.485 552.476 948.456 541.831C949.093 539.549 951.459 538.215 953.742 538.852ZM931.481 601.655C933.635 602.642 934.582 605.188 933.596 607.342C928.909 617.581 923.833 627.603 918.388 637.389C917.236 639.46 914.624 640.204 912.553 639.052C910.482 637.9 909.738 635.288 910.89 633.217C916.226 623.626 921.2 613.805 925.794 603.77C926.78 601.616 929.326 600.669 931.481 601.655ZM899.675 660.206C901.649 661.516 902.187 664.179 900.877 666.153C894.658 675.524 888.082 684.634 881.171 693.466C879.71 695.332 877.013 695.661 875.147 694.2C873.281 692.74 872.952 690.043 874.413 688.177C881.187 679.521 887.632 670.592 893.727 661.408C895.038 659.434 897.7 658.895 899.675 660.206ZM859.135 713.094C860.881 714.695 860.999 717.409 859.398 719.156C851.807 727.435 843.897 735.413 835.687 743.072C833.954 744.688 831.239 744.594 829.623 742.861C828.006 741.128 828.101 738.413 829.833 736.797C837.88 729.291 845.633 721.471 853.073 713.356C854.674 711.61 857.388 711.492 859.135 713.094ZM810.866 759.034C812.342 760.888 812.036 763.587 810.182 765.063C801.405 772.053 792.348 778.703 783.031 784.994C781.067 786.32 778.4 785.803 777.074 783.839C775.748 781.876 776.265 779.209 778.229 777.883C787.359 771.717 796.235 765.2 804.837 758.35C806.691 756.874 809.39 757.181 810.866 759.034ZM756.021 796.88C757.188 798.942 756.463 801.56 754.401 802.727C744.651 808.247 734.663 813.393 724.458 818.147C722.31 819.148 719.757 818.217 718.757 816.069C717.756 813.921 718.686 811.369 720.834 810.368C730.833 805.711 740.619 800.668 750.174 795.26C752.236 794.093 754.854 794.818 756.021 796.88ZM695.902 825.629C696.728 827.85 695.598 830.32 693.377 831.147C682.898 835.048 672.225 838.548 661.378 841.628C659.098 842.275 656.725 840.952 656.078 838.673C655.431 836.393 656.754 834.021 659.034 833.373C669.661 830.356 680.117 826.927 690.384 823.105C692.605 822.278 695.075 823.408 695.902 825.629ZM631.994 844.485C632.457 846.809 630.949 849.069 628.626 849.532C617.684 851.716 606.593 853.479 595.369 854.805C593.016 855.083 590.883 853.401 590.605 851.048C590.327 848.695 592.009 846.562 594.362 846.284C605.36 844.984 616.227 843.256 626.946 841.117C629.27 840.653 631.53 842.161 631.994 844.485ZM565.913 852.983C566.005 855.351 564.16 857.345 561.793 857.437C556.199 857.656 550.578 857.766 544.932 857.766C542.562 857.766 540.641 855.845 540.641 853.475C540.641 851.105 542.562 849.184 544.932 849.184C550.466 849.184 555.976 849.077 561.458 848.863C563.826 848.77 565.82 850.615 565.913 852.983Z" fill="#323444"/>
    <path fill-rule="evenodd" clip-rule="evenodd" d="M543.104 72.7645C543.133 70.3951 545.076 68.4972 547.446 68.5255C553.27 68.595 559.078 68.8071 564.865 69.1597C567.23 69.3038 569.031 71.338 568.887 73.7032C568.743 76.0684 566.708 77.869 564.343 77.7249C558.695 77.3808 553.027 77.1738 547.343 77.106C544.974 77.0777 543.076 75.1339 543.104 72.7645ZM594.592 76.5368C594.966 74.197 597.167 72.6039 599.506 72.9784C611.009 74.8198 622.389 77.2202 633.609 80.1636C635.901 80.7649 637.271 83.1104 636.67 85.4025C636.069 87.6945 633.723 89.0651 631.431 88.4639C620.481 85.5913 609.375 83.2486 598.15 81.4517C595.81 81.0771 594.217 78.8766 594.592 76.5368ZM661.334 93.1781C662.156 90.9556 664.624 89.8202 666.846 90.6421C677.745 94.6723 688.443 99.233 698.904 104.308C701.036 105.342 701.926 107.909 700.892 110.041C699.858 112.173 697.291 113.063 695.159 112.028C684.949 107.075 674.507 102.624 663.87 98.6905C661.647 97.8686 660.512 95.4006 661.334 93.1781ZM723.582 122.446C724.819 120.425 727.46 119.789 729.481 121.025C739.37 127.074 748.986 133.614 758.291 140.631C760.183 142.057 760.561 144.747 759.134 146.64C757.707 148.532 755.017 148.909 753.125 147.482C744.042 140.633 734.656 134.249 725.004 128.345C722.982 127.109 722.346 124.468 723.582 122.446ZM779.004 163.191C780.607 161.446 783.321 161.331 785.066 162.933C789.335 166.854 793.519 170.887 797.614 175.029C799.279 176.715 799.264 179.431 797.578 181.097C795.893 182.763 793.177 182.747 791.511 181.062C787.513 177.017 783.429 173.081 779.262 169.253C777.517 167.65 777.401 164.936 779.004 163.191Z" fill="#323444"/>
    <path fill-rule="evenodd" clip-rule="evenodd" d="M289.862 676.664C291.546 674.997 294.262 675.011 295.929 676.695C299.779 680.584 303.712 684.377 307.724 688.07C309.467 689.675 309.579 692.39 307.974 694.133C306.369 695.876 303.655 695.988 301.912 694.383C297.802 690.6 293.774 686.715 289.831 682.732C288.164 681.047 288.177 678.331 289.862 676.664ZM326.818 709.927C328.254 708.042 330.946 707.678 332.831 709.114C341.536 715.745 350.532 721.956 359.788 727.729C361.799 728.983 362.412 731.63 361.158 733.64C359.904 735.651 357.257 736.264 355.247 735.01C345.764 729.095 336.548 722.733 327.631 715.94C325.746 714.504 325.382 711.812 326.818 709.927ZM382.606 745.664C383.666 743.545 386.244 742.687 388.363 743.748C398.126 748.635 408.118 753.066 418.31 757.023C420.519 757.881 421.614 760.367 420.757 762.576C419.899 764.785 417.413 765.88 415.204 765.023C404.762 760.968 394.524 756.428 384.522 751.421C382.403 750.36 381.545 747.783 382.606 745.664ZM664.014 764.028C664.791 766.267 663.606 768.712 661.368 769.489C656.084 771.323 650.767 773.031 645.42 774.61C643.148 775.282 640.761 773.984 640.09 771.711C639.418 769.439 640.716 767.052 642.988 766.381C648.206 764.839 653.396 763.173 658.553 761.382C660.792 760.605 663.237 761.79 664.014 764.028ZM444.069 770.39C444.716 768.111 447.088 766.787 449.368 767.433C454.615 768.922 459.904 770.289 465.23 771.533C470.546 772.775 475.881 773.889 481.232 774.876C483.563 775.306 485.103 777.544 484.673 779.874C484.243 782.204 482.005 783.745 479.675 783.315C474.192 782.303 468.726 781.161 463.279 779.889C457.821 778.615 452.403 777.214 447.026 775.689C444.746 775.042 443.423 772.67 444.069 770.39ZM616.28 777.548C616.735 779.873 615.219 782.128 612.894 782.583C601.92 784.733 590.864 786.363 579.763 787.471C577.405 787.706 575.302 785.986 575.067 783.628C574.832 781.27 576.552 779.168 578.91 778.932C589.744 777.851 600.534 776.26 611.244 774.162C613.57 773.707 615.824 775.222 616.28 777.548ZM508.963 783.186C509.172 780.825 511.256 779.082 513.616 779.291C524.486 780.256 535.383 780.707 546.272 780.647C548.641 780.634 550.573 782.545 550.586 784.914C550.599 787.284 548.688 789.215 546.319 789.228C535.162 789.29 523.996 788.827 512.858 787.839C510.497 787.629 508.754 785.546 508.963 783.186Z" fill="#323444"/>
    </svg>